<svg width="136" height="136" viewBox="0 0 136 136" fill="none" xmlns="http://www.w3.org/2000/svg">
<g filter="url(#filter0_d_4_5)">
<rect x="4" y="2" width="128" height="128" rx="16" fill="url(#paint0_linear_4_5)"/>
</g>
<path d="M10.94 102V36.5455H22.7972V66.62H23.5962L49.1324 36.5455H63.6104L38.2979 65.9169L63.8341 102H49.5799L30.0522 73.9389L22.7972 82.5043V102H10.94ZM114.882 57.4474C114.349 55.7216 113.614 54.1768 112.677 52.8132C111.761 51.4283 110.653 50.2457 109.353 49.2656C108.074 48.2855 106.604 47.5504 104.942 47.0604C103.28 46.549 101.469 46.2933 99.5091 46.2933C95.9935 46.2933 92.8614 47.1776 90.1128 48.946C87.3642 50.7145 85.2016 53.3139 83.6249 56.7443C82.0695 60.1534 81.2918 64.3082 81.2918 69.2088C81.2918 74.152 82.0695 78.3388 83.6249 81.7692C85.1803 85.1996 87.3429 87.8097 90.1128 89.5994C92.8827 91.3679 96.1 92.2521 99.7648 92.2521C103.089 92.2521 105.965 91.6129 108.394 90.3345C110.844 89.0561 112.73 87.245 114.051 84.9013C115.372 82.5362 116.033 79.7663 116.033 76.5916L118.717 77.0071H100.947V67.7386H127.506V75.6009C127.506 81.2045 126.313 86.0518 123.927 90.1428C121.54 94.2337 118.259 97.3871 114.083 99.603C109.907 101.798 105.113 102.895 99.7009 102.895C93.671 102.895 88.3763 101.542 83.8166 98.8359C79.2783 96.1087 75.7307 92.2415 73.1739 87.2344C70.6384 82.206 69.3706 76.2401 69.3706 69.3366C69.3706 64.0526 70.1163 59.3331 71.6078 55.1783C73.1206 51.0234 75.23 47.4972 77.9359 44.5994C80.6419 41.6804 83.8166 39.4645 87.4601 37.9517C91.1036 36.4176 95.0666 35.6506 99.3493 35.6506C102.971 35.6506 106.349 36.1832 109.481 37.2486C112.613 38.2926 115.393 39.7841 117.822 41.723C120.273 43.6619 122.286 45.9631 123.863 48.6264C125.439 51.2898 126.473 54.2301 126.963 57.4474H114.882Z" fill="white"/>
<defs>
<filter id="filter0_d_4_5" x="0" y="0" width="136" height="136" filterUnits="userSpaceOnUse" color-interpolation-filters="sRGB">
<feFlood flood-opacity="0" result="BackgroundImageFix"/>
<feColorMatrix in="SourceAlpha" type="matrix" values="0 0 0 0 0 0 0 0 0 0 0 0 0 0 0 0 0 0 127 0" result="hardAlpha"/>
<feOffset dy="2"/>
<feGaussianBlur stdDeviation="2"/>
<feComposite in2="hardAlpha" operator="out"/>
<feColorMatrix type="matrix" values="0 0 0 0 0 0 0 0 0 0 0 0 0 0 0 0 0 0 0.01 0"/>
<feBlend mode="normal" in2="BackgroundImageFix" result="effect1_dropShadow_4_5"/>
<feBlend mode="normal" in="SourceGraphic" in2="effect1_dropShadow_4_5" result="shape"/>
</filter>
<linearGradient id="paint0_linear_4_5" x1="68" y1="2" x2="68" y2="130" gradientUnits="userSpaceOnUse">
<stop stop-color="#FF4500"/>
<stop offset="1" stop-color="#FF6600"/>
</linearGradient>
</defs>
</svg>
